<svg width="32" height="32" viewBox="0 0 32 32" fill="none" xmlns="http://www.w3.org/2000/svg">
<rect width="32" height="32" fill="#1E1E1E"/>
<rect width="32" height="32" fill="white"/>
<path d="M15.9487 24.7759H25.728V19.4655H30V29H15.9487L15.9487 24.7759Z" fill="black"/>
<path d="M16.0513 24.7759H6.272V19.4655H2V29H16.0513V24.7759Z" fill="black"/>
<path d="M7.03298 11.4799C7.04782 12.5378 7.31402 13.5366 7.77949 14.4311C8.16959 15.1807 8.69965 15.857 9.33902 16.4333C10.0066 17.0349 10.7933 17.5275 11.6643 17.8806C12.7036 18.3019 13.8629 18.5246 15.0829 18.4971C16.1967 18.4719 17.2541 18.2405 18.2112 17.8443C18.9697 17.5302 19.6652 17.1126 20.2757 16.6119C21.0491 15.9777 21.6862 15.2102 22.1423 14.3514C22.6622 13.3725 22.947 12.2749 22.9308 11.1206C22.916 10.0626 22.6497 9.06355 22.1841 8.16897C21.739 7.31384 21.1118 6.55416 20.348 5.92958C19.7434 5.43521 19.0532 5.02549 18.3 4.72009C17.2605 4.29865 16.1011 4.07587 14.8809 4.10344C14.8809 4.10344 13.4703 3.99673 11.7539 4.63892C11.0003 4.92086 10.1877 5.34717 9.40968 5.99024C8.68214 6.59159 8.17578 7.26103 7.82361 7.91076C6.94139 9.53842 7.02684 11.0424 7.02684 11.0424" stroke="black" stroke-width="5" stroke-linecap="round"/>
<rect width="3.46448" height="7.44313" transform="matrix(0.875696 -0.482863 0.558326 0.829622 17.4897 18.1584)" fill="black"/>
</svg>
